<svg width="798" height="134" viewBox="0 0 798 134" fill="none" xmlns="http://www.w3.org/2000/svg">
<g opacity="0.3">
<path d="M45.0979 117.236C19.1859 117.236 2.59592 101.594 0.699921 78.842L14.9199 77.894C17.1319 94.642 27.4019 103.964 45.4139 103.964C61.0559 103.964 70.2199 97.802 70.2199 86.268C70.2199 75.84 65.0059 69.52 38.1459 62.884C12.2339 56.406 3.06992 48.664 3.06992 31.916C3.06992 13.114 17.2899 0 40.3579 0C65.0059 0 79.5419 15.168 82.0699 35.708L67.8499 36.656C65.9539 23.068 56.7899 13.272 40.0419 13.272C26.1379 13.272 17.2899 20.54 17.2899 31.284C17.2899 41.87 22.9779 45.662 46.6779 51.508C74.8019 58.46 84.4399 69.204 84.4399 85.32C84.4399 104.912 68.0079 117.236 45.0979 117.236Z" fill="#838E9E"/>
<path d="M45.0979 117.236C19.1859 117.236 2.59592 101.594 0.699921 78.842L14.9199 77.894C17.1319 94.642 27.4019 103.964 45.4139 103.964C61.0559 103.964 70.2199 97.802 70.2199 86.268C70.2199 75.84 65.0059 69.52 38.1459 62.884C12.2339 56.406 3.06992 48.664 3.06992 31.916C3.06992 13.114 17.2899 0 40.3579 0C65.0059 0 79.5419 15.168 82.0699 35.708L67.8499 36.656C65.9539 23.068 56.7899 13.272 40.0419 13.272C26.1379 13.272 17.2899 20.54 17.2899 31.284C17.2899 41.87 22.9779 45.662 46.6779 51.508C74.8019 58.46 84.4399 69.204 84.4399 85.32C84.4399 104.912 68.0079 117.236 45.0979 117.236Z" fill="url(#paint0_linear_1_3827)"/>
<path d="M118.163 116.604C101.415 116.604 90.671 104.754 90.671 84.846V30.968H103.943V81.212C103.943 97.486 109.631 104.912 121.639 104.912C134.911 104.912 142.969 95.906 142.969 80.896V30.968H156.241V114.708H143.601V101.12C139.019 111.074 130.171 116.604 118.163 116.604Z" fill="#838E9E"/>
<path d="M118.163 116.604C101.415 116.604 90.671 104.754 90.671 84.846V30.968H103.943V81.212C103.943 97.486 109.631 104.912 121.639 104.912C134.911 104.912 142.969 95.906 142.969 80.896V30.968H156.241V114.708H143.601V101.12C139.019 111.074 130.171 116.604 118.163 116.604Z" fill="url(#paint1_linear_1_3827)"/>
<path d="M165.752 138.408V30.968H178.076L178.234 43.766C183.29 34.128 192.612 29.072 203.988 29.072C228.952 29.072 240.17 49.77 240.17 72.838C240.17 95.906 228.952 116.604 203.988 116.604C193.086 116.604 183.448 111.706 179.024 103.648V138.408H165.752ZM202.724 103.964C217.26 103.964 226.266 92.43 226.266 72.838C226.266 53.246 217.26 41.712 202.724 41.712C188.188 41.712 179.024 52.298 179.024 72.838C179.024 93.378 188.03 103.964 202.724 103.964Z" fill="#838E9E"/>
<path d="M165.752 138.408V30.968H178.076L178.234 43.766C183.29 34.128 192.612 29.072 203.988 29.072C228.952 29.072 240.17 49.77 240.17 72.838C240.17 95.906 228.952 116.604 203.988 116.604C193.086 116.604 183.448 111.706 179.024 103.648V138.408H165.752ZM202.724 103.964C217.26 103.964 226.266 92.43 226.266 72.838C226.266 53.246 217.26 41.712 202.724 41.712C188.188 41.712 179.024 52.298 179.024 72.838C179.024 93.378 188.03 103.964 202.724 103.964Z" fill="url(#paint2_linear_1_3827)"/>
<path d="M276.79 116.604C253.09 116.604 238.396 99.382 238.396 72.838C238.396 46.294 253.09 29.072 276.158 29.072C297.962 29.072 313.13 44.872 313.13 72.996V76.946H252.3C253.248 94.958 262.254 103.964 276.79 103.964C287.692 103.964 294.802 98.434 297.646 89.902L311.866 91.008C307.442 106.018 294.486 116.604 276.79 116.604ZM298.594 65.254C297.33 49.138 288.482 41.712 276.158 41.712C263.202 41.712 254.512 49.77 252.3 65.254H298.594Z" fill="#838E9E"/>
<path d="M276.79 116.604C253.09 116.604 238.396 99.382 238.396 72.838C238.396 46.294 253.09 29.072 276.158 29.072C297.962 29.072 313.13 44.872 313.13 72.996V76.946H252.3C253.248 94.958 262.254 103.964 276.79 103.964C287.692 103.964 294.802 98.434 297.646 89.902L311.866 91.008C307.442 106.018 294.486 116.604 276.79 116.604ZM298.594 65.254C297.33 49.138 288.482 41.712 276.158 41.712C263.202 41.712 254.512 49.77 252.3 65.254H298.594Z" fill="url(#paint3_linear_1_3827)"/>
<path d="M316.685 114.708V30.968H328.377L328.851 46.452C331.853 35.866 338.489 30.968 348.759 30.968H356.975V43.608H348.917C336.277 43.608 329.957 50.402 329.957 64.148V114.708H316.685Z" fill="#838E9E"/>
<path d="M316.685 114.708V30.968H328.377L328.851 46.452C331.853 35.866 338.489 30.968 348.759 30.968H356.975V43.608H348.917C336.277 43.608 329.957 50.402 329.957 64.148V114.708H316.685Z" fill="url(#paint4_linear_1_3827)"/>
<path d="M360.797 114.708V2.528H379.757L415.623 99.856L451.331 2.528H470.291V114.708H456.703V27.808L424.629 114.708H406.459L374.385 27.808V114.708H360.797Z" fill="#838E9E"/>
<path d="M360.797 114.708V2.528H379.757L415.623 99.856L451.331 2.528H470.291V114.708H456.703V27.808L424.629 114.708H406.459L374.385 27.808V114.708H360.797Z" fill="url(#paint5_linear_1_3827)"/>
<path d="M514.839 116.604C491.139 116.604 476.445 99.382 476.445 72.838C476.445 46.294 491.139 29.072 514.207 29.072C536.011 29.072 551.179 44.872 551.179 72.996V76.946H490.349C491.297 94.958 500.303 103.964 514.839 103.964C525.741 103.964 532.851 98.434 535.695 89.902L549.915 91.008C545.491 106.018 532.535 116.604 514.839 116.604ZM536.643 65.254C535.379 49.138 526.531 41.712 514.207 41.712C501.251 41.712 492.561 49.77 490.349 65.254H536.643Z" fill="#838E9E"/>
<path d="M514.839 116.604C491.139 116.604 476.445 99.382 476.445 72.838C476.445 46.294 491.139 29.072 514.207 29.072C536.011 29.072 551.179 44.872 551.179 72.996V76.946H490.349C491.297 94.958 500.303 103.964 514.839 103.964C525.741 103.964 532.851 98.434 535.695 89.902L549.915 91.008C545.491 106.018 532.535 116.604 514.839 116.604ZM536.643 65.254C535.379 49.138 526.531 41.712 514.207 41.712C501.251 41.712 492.561 49.77 490.349 65.254H536.643Z" fill="url(#paint6_linear_1_3827)"/>
<path d="M581.375 114.708C566.207 114.708 559.097 108.072 559.097 93.22V42.66H546.773V30.968H559.097V11.376H572.369V30.968H594.647V42.66H572.369V92.904C572.369 100.488 575.687 103.016 582.639 103.016H594.647V114.708H581.375Z" fill="#838E9E"/>
<path d="M581.375 114.708C566.207 114.708 559.097 108.072 559.097 93.22V42.66H546.773V30.968H559.097V11.376H572.369V30.968H594.647V42.66H572.369V92.904C572.369 100.488 575.687 103.016 582.639 103.016H594.647V114.708H581.375Z" fill="url(#paint7_linear_1_3827)"/>
<path d="M598.03 114.708V30.968H609.722L610.196 46.452C613.198 35.866 619.834 30.968 630.104 30.968H638.32V43.608H630.262C617.622 43.608 611.302 50.402 611.302 64.148V114.708H598.03Z" fill="#838E9E"/>
<path d="M598.03 114.708V30.968H609.722L610.196 46.452C613.198 35.866 619.834 30.968 630.104 30.968H638.32V43.608H630.262C617.622 43.608 611.302 50.402 611.302 64.148V114.708H598.03Z" fill="url(#paint8_linear_1_3827)"/>
<path d="M640.246 114.708V30.968H653.518V114.708H640.246ZM639.93 17.854V2.37H653.834V17.854H639.93Z" fill="#838E9E"/>
<path d="M640.246 114.708V30.968H653.518V114.708H640.246ZM639.93 17.854V2.37H653.834V17.854H639.93Z" fill="url(#paint9_linear_1_3827)"/>
<path d="M696.2 116.604C672.816 116.604 657.806 99.382 657.806 72.838C657.806 46.294 672.816 29.072 696.2 29.072C715.476 29.072 728.906 39.5 731.75 58.144L717.846 59.092C715.95 48.032 707.576 41.712 696.2 41.712C680.716 41.712 671.71 53.404 671.71 72.838C671.71 92.272 680.716 103.964 696.2 103.964C707.576 103.964 715.95 97.644 717.846 85.004L731.75 85.952C728.906 104.596 715.476 116.604 696.2 116.604Z" fill="#838E9E"/>
<path d="M696.2 116.604C672.816 116.604 657.806 99.382 657.806 72.838C657.806 46.294 672.816 29.072 696.2 29.072C715.476 29.072 728.906 39.5 731.75 58.144L717.846 59.092C715.95 48.032 707.576 41.712 696.2 41.712C680.716 41.712 671.71 53.404 671.71 72.838C671.71 92.272 680.716 103.964 696.2 103.964C707.576 103.964 715.95 97.644 717.846 85.004L731.75 85.952C728.906 104.596 715.476 116.604 696.2 116.604Z" fill="url(#paint10_linear_1_3827)"/>
<path d="M764.594 116.604C742.158 116.604 729.676 104.754 728.412 88.322L742.316 87.374C743.896 97.486 750.374 103.964 764.594 103.964C775.97 103.964 783.396 100.488 783.396 92.272C783.396 85.636 780.078 82.792 762.066 79.632C738.05 75.366 730.466 67.94 730.466 54.668C730.466 39.816 741.842 29.072 762.066 29.072C782.448 29.072 793.192 41.396 795.72 55.932L781.816 56.88C779.92 48.032 773.284 41.712 761.908 41.712C749.9 41.712 744.37 46.926 744.37 54.036C744.37 62.252 749.742 65.412 764.594 67.94C790.19 72.364 797.3 79 797.3 92.272C797.3 107.756 783.08 116.604 764.594 116.604Z" fill="#838E9E"/>
<path d="M764.594 116.604C742.158 116.604 729.676 104.754 728.412 88.322L742.316 87.374C743.896 97.486 750.374 103.964 764.594 103.964C775.97 103.964 783.396 100.488 783.396 92.272C783.396 85.636 780.078 82.792 762.066 79.632C738.05 75.366 730.466 67.94 730.466 54.668C730.466 39.816 741.842 29.072 762.066 29.072C782.448 29.072 793.192 41.396 795.72 55.932L781.816 56.88C779.92 48.032 773.284 41.712 761.908 41.712C749.9 41.712 744.37 46.926 744.37 54.036C744.37 62.252 749.742 65.412 764.594 67.94C790.19 72.364 797.3 79 797.3 92.272C797.3 107.756 783.08 116.604 764.594 116.604Z" fill="url(#paint11_linear_1_3827)"/>
</g>
<defs>
<linearGradient id="paint0_linear_1_3827" x1="398.074" y1="-4.29199" x2="398.074" y2="105.361" gradientUnits="userSpaceOnUse">
<stop stop-color="#CFD5DE" stop-opacity="0"/>
<stop offset="1" stop-color="#CFD5DE"/>
</linearGradient>
<linearGradient id="paint1_linear_1_3827" x1="398.074" y1="-4.29199" x2="398.074" y2="105.361" gradientUnits="userSpaceOnUse">
<stop stop-color="#CFD5DE" stop-opacity="0"/>
<stop offset="1" stop-color="#CFD5DE"/>
</linearGradient>
<linearGradient id="paint2_linear_1_3827" x1="398.074" y1="-4.29199" x2="398.074" y2="105.361" gradientUnits="userSpaceOnUse">
<stop stop-color="#CFD5DE" stop-opacity="0"/>
<stop offset="1" stop-color="#CFD5DE"/>
</linearGradient>
<linearGradient id="paint3_linear_1_3827" x1="398.074" y1="-4.29199" x2="398.074" y2="105.361" gradientUnits="userSpaceOnUse">
<stop stop-color="#CFD5DE" stop-opacity="0"/>
<stop offset="1" stop-color="#CFD5DE"/>
</linearGradient>
<linearGradient id="paint4_linear_1_3827" x1="398.074" y1="-4.29199" x2="398.074" y2="105.361" gradientUnits="userSpaceOnUse">
<stop stop-color="#CFD5DE" stop-opacity="0"/>
<stop offset="1" stop-color="#CFD5DE"/>
</linearGradient>
<linearGradient id="paint5_linear_1_3827" x1="398.074" y1="-4.29199" x2="398.074" y2="105.361" gradientUnits="userSpaceOnUse">
<stop stop-color="#CFD5DE" stop-opacity="0"/>
<stop offset="1" stop-color="#CFD5DE"/>
</linearGradient>
<linearGradient id="paint6_linear_1_3827" x1="398.074" y1="-4.29199" x2="398.074" y2="105.361" gradientUnits="userSpaceOnUse">
<stop stop-color="#CFD5DE" stop-opacity="0"/>
<stop offset="1" stop-color="#CFD5DE"/>
</linearGradient>
<linearGradient id="paint7_linear_1_3827" x1="398.074" y1="-4.29199" x2="398.074" y2="105.361" gradientUnits="userSpaceOnUse">
<stop stop-color="#CFD5DE" stop-opacity="0"/>
<stop offset="1" stop-color="#CFD5DE"/>
</linearGradient>
<linearGradient id="paint8_linear_1_3827" x1="398.074" y1="-4.29199" x2="398.074" y2="105.361" gradientUnits="userSpaceOnUse">
<stop stop-color="#CFD5DE" stop-opacity="0"/>
<stop offset="1" stop-color="#CFD5DE"/>
</linearGradient>
<linearGradient id="paint9_linear_1_3827" x1="398.074" y1="-4.29199" x2="398.074" y2="105.361" gradientUnits="userSpaceOnUse">
<stop stop-color="#CFD5DE" stop-opacity="0"/>
<stop offset="1" stop-color="#CFD5DE"/>
</linearGradient>
<linearGradient id="paint10_linear_1_3827" x1="398.074" y1="-4.29199" x2="398.074" y2="105.361" gradientUnits="userSpaceOnUse">
<stop stop-color="#CFD5DE" stop-opacity="0"/>
<stop offset="1" stop-color="#CFD5DE"/>
</linearGradient>
<linearGradient id="paint11_linear_1_3827" x1="398.074" y1="-4.29199" x2="398.074" y2="105.361" gradientUnits="userSpaceOnUse">
<stop stop-color="#CFD5DE" stop-opacity="0"/>
<stop offset="1" stop-color="#CFD5DE"/>
</linearGradient>
</defs>
</svg>
